<?xml version="1.0" standalone="no"?><svg xmlns="http://www.w3.org/2000/svg" viewBox="0 0 1440 320"><path fill="#03d3fd" fill-opacity="1" d="M0,96L11.4,133.3C22.9,171,46,245,69,256C91.4,267,114,213,137,197.3C160,181,183,203,206,224C228.6,245,251,267,274,256C297.1,245,320,203,343,160C365.7,117,389,75,411,85.3C434.3,96,457,160,480,197.3C502.9,235,526,245,549,250.7C571.4,256,594,256,617,218.7C640,181,663,107,686,106.7C708.6,107,731,181,754,202.7C777.1,224,800,192,823,181.3C845.7,171,869,181,891,154.7C914.3,128,937,64,960,80C982.9,96,1006,192,1029,245.3C1051.4,299,1074,309,1097,288C1120,267,1143,213,1166,202.7C1188.6,192,1211,224,1234,229.3C1257.1,235,1280,213,1303,208C1325.7,203,1349,213,1371,202.7C1394.3,192,1417,160,1429,144L1440,128L1440,0L1428.6,0C1417.1,0,1394,0,1371,0C1348.6,0,1326,0,1303,0C1280,0,1257,0,1234,0C1211.4,0,1189,0,1166,0C1142.9,0,1120,0,1097,0C1074.3,0,1051,0,1029,0C1005.7,0,983,0,960,0C937.1,0,914,0,891,0C868.6,0,846,0,823,0C800,0,777,0,754,0C731.4,0,709,0,686,0C662.9,0,640,0,617,0C594.3,0,571,0,549,0C525.7,0,503,0,480,0C457.1,0,434,0,411,0C388.6,0,366,0,343,0C320,0,297,0,274,0C251.4,0,229,0,206,0C182.9,0,160,0,137,0C114.3,0,91,0,69,0C45.7,0,23,0,11,0L0,0Z"></path></svg>